<svg preserveAspectRatio="xMidYMid meet" viewBox="157.14285714285714 273.52799999999996 1090.5714285714284 246.804" xmlns="http://www.w3.org/2000/svg" version="1.0" style="max-height: 500px" width="1090.5714285714284" height="246.804">
 <g fill="#0000">
  <path d="M0 392.9 l0 -392.9 704 0 704 0 0 392.9 0 392.9 -704 0 -704 0 0 -392.9z m586.9 118.2 c5.9 -2.5 7 -6.4 5.6 -22.4 -0.6 -7.4 -1.3 -19 -1.7 -25.9 l-0.7 -12.6 6.8 0 c27.6 0 47.8 -24 47.8 -57 0 -31.5 -14.3 -51.9 -36.3 -52 -5.8 0 -8.3 0.5 -12.5 2.8 l-5.2 2.7 -0.6 -3.3 c-1 -5.1 -4.8 -8.1 -11.1 -8.5 -6.8 -0.5 -11.7 1.9 -14.4 7.2 -1.5 3.1 -2 7.7 -3 29.6 -1.2 30.3 -0.5 122.2 1.1 128.1 0.5 2.3 1.8 5.2 2.9 6.5 4.4 5.8 13.8 8 21.4 4.8z m-323.5 -7.1 c5.2 -2.3 7 -6.3 6.3 -15.8 -0.3 -4.4 -1 -25.4 -1.6 -46.8 -1.2 -48.8 -2.8 -63 -8.4 -77.6 -3 -7.7 -9.8 -15.3 -15.8 -17.6 -6.1 -2.4 -15.8 -1.7 -22.5 1.5 -6.5 3.2 -16.6 13.2 -20.5 20.8 -1.6 3.2 -3.4 5.8 -3.7 5.8 -0.4 0 -1 -3.4 -1.4 -7.4 -0.9 -9.5 -2.7 -13.6 -6.5 -15.6 -5.3 -2.8 -14.8 -1.3 -19.7 3.2 -4.7 4.1 -5 6.8 -2.9 26.5 1 10 3.4 36.5 5.1 58.7 1.7 22.2 3.4 41.9 3.7 43.5 1.2 5.7 3.5 8.8 8.3 10.9 8.4 3.7 20.1 0.4 22.8 -6.4 1.1 -2.6 1 -7.2 -0.5 -25.8 -1.5 -19.3 -1.6 -24.6 -0.6 -35.4 1.3 -13.2 4.9 -29.3 7.7 -34.8 3.1 -5.7 7.8 -10.3 10.7 -10.3 7.4 0 9 7.6 10.3 47.6 1.5 49.5 1.9 57.1 3.1 61 3.4 11.9 15.5 18.2 26.1 13.8z m937.9 -21.8 c4.7 -2.8 5.9 -6.9 7 -23 2 -31.1 2.4 -46.5 1.2 -58.1 -2 -20.2 -5.3 -29 -13 -35.8 -5.6 -4.9 -10.1 -6.4 -18.8 -6.4 -8.8 -0.1 -13.4 1.5 -20.3 7.2 l-4.5 3.7 0.6 -10.1 c1.3 -22.6 1.7 -61.4 0.7 -65.8 -1.5 -6.9 -5.8 -10.5 -12.7 -11.2 -7.5 -0.6 -12.4 1.7 -15.2 7.4 -2 4 -2.3 6.7 -3.5 55.9 -0.7 28.4 -1.4 65.5 -1.6 82.4 -0.3 29.2 -0.2 30.9 1.7 34.1 5.9 9.8 22.2 10.3 27.3 0.9 0.6 -1.3 1.5 -10.2 1.9 -20.7 1 -24.3 3.6 -36.9 9.4 -47.9 3.4 -6.5 5.5 -8.2 9.7 -7.7 4 0.4 6.1 5.6 7.4 17.9 1 9.7 0.8 17.6 -1.6 55.2 -0.6 9.3 -0.5 10.8 1.4 14.9 2.9 5.7 8.1 8.9 14.8 9 3 0 6.2 -0.7 8 -1.7z m-478.6 -2.9 c3.3 -0.8 8 -2.8 10.6 -4.3 16.3 -9.6 28.3 -33.9 25 -50.3 -1.5 -7.1 -3.4 -9.8 -8.4 -12.4 -4.9 -2.5 -8.3 -2.6 -13 -0.4 -4.7 2.3 -6.1 4.7 -8.8 14.9 -3 10.8 -6.8 17.4 -11.4 19.6 -12 5.6 -21.6 -3.1 -26.9 -24.5 -2.6 -10.2 -2.5 -38.7 0 -50.7 4 -18.7 9.6 -31.3 16.2 -36.1 1.4 -1 4.5 -2.1 6.8 -2.5 3.5 -0.4 4.6 -0.1 7.4 2.4 2.8 2.6 3.5 4 4.3 10.1 1.6 11.5 3.1 15 7 17.6 7.2 4.8 17.3 2.3 22 -5.7 2.8 -4.8 3.4 -16.2 1.2 -24.7 -5.3 -21.2 -18.5 -31.7 -39.5 -31.7 -22.5 0 -41.3 15 -52.2 41.6 -9.9 24.6 -12.3 62.4 -5.5 90.4 5.4 22.4 21.7 41.7 39.2 46.7 6.5 1.7 19 1.7 26.1 -0.1z m-289.6 -7 c12.8 -5.8 22.1 -19.9 22.9 -34.5 0.7 -12.1 -3.3 -17.4 -13 -17.4 -6.2 0 -9.6 3.5 -12.9 13.2 -7.2 21.5 -22.2 18.1 -26.8 -6.1 -3.1 -16.5 0 -41.9 6.4 -52.8 6.1 -10.5 16.8 -9 16.8 2.6 0 9.1 4.8 14.5 12.8 14.5 9.1 0 14.2 -6.4 14.2 -17.9 0 -9.6 -2.7 -17.1 -8.3 -23.1 -6.8 -7.2 -13 -9.6 -24.9 -9.6 -8.8 0 -10.3 0.3 -16.7 3.3 -19.5 9.3 -31.4 35 -31.4 68 0 33.5 11.6 54.3 34.3 61.9 6.4 2.1 19.5 1.1 26.5 -2z m-106.6 0.4 c17.3 -2.9 30.5 -16.7 36.3 -38 2.7 -9.6 2.7 -40.6 0 -50.1 -4.6 -16.3 -12 -26.5 -22.9 -31.9 -5.8 -2.9 -8.1 -3.4 -16.2 -3.7 -10.3 -0.5 -17.1 1.1 -24 5.4 -9.8 6.1 -17.3 18 -21.1 33.3 -2.7 10.6 -2.8 37.5 -0.1 47.1 5.5 20.4 19.1 35.1 35.2 37.9 6.9 1.1 6.3 1.1 12.8 0.1z m684.9 -6.5 c4 -4 3.9 -3.2 5.6 -46.3 1.2 -30.1 0.5 -42.5 -3.2 -54.3 -3.9 -12.6 -12.1 -19.6 -23.7 -20.6 -9.7 -0.8 -16.5 2.1 -24 10.5 l-6.1 6.5 -0.7 -5.8 c-0.9 -7.7 -1.9 -9.3 -6.4 -11.3 -7.2 -3 -17.1 0.9 -19.9 7.8 -0.7 1.7 -1 19.2 -0.9 49.7 0.2 43.3 0.4 47.4 2.1 51.4 3.1 7.1 13.4 10.5 20.9 7 5.8 -2.8 6.3 -4.8 7.2 -27.6 0.9 -30 4 -45.4 10.7 -53.7 2.3 -2.9 3.6 -3.6 6.3 -3.6 3.1 0 3.8 0.5 5.5 4.1 1.8 3.6 2 6.1 2 22 0 9.8 -0.4 26.2 -0.8 36.3 -0.9 18.1 -0.8 18.5 1.5 22.9 3 5.7 7.6 8.3 14.9 8.3 4.9 0 5.9 -0.4 8.9 -3.4z m-469.2 -0.9 c6.7 -3.4 7.7 -6 6 -17 -1.3 -9.8 -1.5 -16.7 -1 -46.3 0.4 -27.3 -2 -38.9 -10.2 -49.3 -11.6 -14.5 -37.5 -16.2 -55.9 -3.5 -13.1 8.9 -14.5 24.1 -2.9 28 5.6 1.8 8.7 0.8 16.4 -5.4 7.7 -6.3 12.4 -7.8 16.4 -5.2 3.9 2.6 5.5 5.7 6.2 12.2 l0.7 5.8 -4.5 0 c-12.9 0.1 -27.8 5.8 -37.1 14.4 -12.8 11.7 -17 31.6 -9.8 46.6 3.2 6.5 11.3 13.4 18.2 15.3 10.2 3 25.1 0.3 31.5 -5.8 l2.3 -2 0.6 2.9 c1.2 4.7 3.6 7.6 8.1 9.6 5.6 2.6 9.5 2.5 15 -0.3z m249.2 -1.2 c1.9 -0.8 4.5 -3.1 5.6 -4.9 2 -3.3 2 -4.3 1.4 -30.1 -0.8 -30.7 0.2 -38.5 6 -47.2 4.6 -6.8 7.8 -8.7 14.7 -9.3 9.7 -0.8 14.6 -6.1 14.6 -16.1 0 -10 -6.8 -15.6 -17.7 -14.5 -8 0.7 -13 4.2 -18.4 12.7 l-4.3 6.7 -1.1 -5.7 c-1.3 -6.9 -2.6 -8.5 -7.5 -9.9 -8.3 -2.5 -17.6 3.2 -19 11.6 -0.8 4.5 3.1 83.2 4.5 93.7 0.5 3.6 1.7 7.6 2.7 9 3.3 5 11.7 6.9 18.4 4.1z m299.5 -1.8 c11.8 -5.5 20.3 -17.6 21.1 -30.1 0.7 -10.4 -3.8 -15.8 -13.4 -15.8 -5.7 0 -8.6 2.6 -13 11.4 -3.9 7.7 -6.4 10 -11.1 10.1 -10.8 0 -16.6 -11.2 -16.6 -32.2 0 -18.9 5.4 -35.1 13.4 -39.7 4.1 -2.4 8.4 -1.8 10 1.2 0.6 1 1.5 4.7 2 8.3 1.2 7.3 3.6 10.5 8.9 12.3 7.4 2.5 16.9 -3.6 18.4 -11.9 2.6 -13.7 -5 -28.7 -17.8 -34.9 -5.2 -2.6 -7 -2.9 -16.2 -2.9 -9.8 0 -10.5 0.2 -18 3.8 -14 7 -23.5 19.7 -28.7 38.7 -3.1 11.6 -3.4 37.7 -0.4 48 2.6 9.3 7.2 17.9 12.6 23.7 9.2 9.8 18.1 13.3 33.1 12.9 8.1 -0.2 10.7 -0.7 15.6 -3z m-199.8 -0.2 c19.7 -7.1 30.1 -30.9 30 -69.2 0 -36.5 -4.7 -48 -18.9 -46.8 -5.6 0.5 -10 3.3 -11.4 7.2 -0.6 1.7 -0.5 10 0.3 22.9 1.6 26.6 -0.1 44.7 -5.2 53.2 -2.7 4.5 -7.6 5.8 -12.3 3.3 -7.5 -4 -9.7 -29.4 -5.3 -60.5 1.9 -13.7 0.9 -17.2 -5.9 -20.3 -5.5 -2.5 -8.4 -2.6 -13.7 -0.1 -3.2 1.4 -4.8 3.1 -6.4 6.5 -4.4 9 -5.6 18 -5.6 41.1 0 23.5 1.2 30.8 7.2 42.9 8.7 17.7 29.1 26.1 47.4 19.6z m333.8 -121.4 c0.4 -5.9 0.7 -10.8 0.8 -10.8 0 -0.1 3.8 -2.3 8.3 -4.9 4.6 -2.7 8.6 -5.5 8.9 -6.3 0.9 -2.5 -2.7 -5.1 -10.4 -7.6 -3.9 -1.2 -7.5 -2.6 -7.9 -3 -0.4 -0.3 -1.6 -4.6 -2.7 -9.6 -3.3 -14.4 -4.7 -14.7 -13.7 -2.8 -5.8 7.9 -5.4 7.7 -16.5 6.1 -8.3 -1.2 -11.5 -0.2 -10.3 3.4 0.4 1.2 2.8 5.3 5.3 9.2 l4.7 7 -2.4 5.3 c-4.8 10.8 -5.4 12.9 -4.9 14.4 0.9 2.3 4.9 2 13.7 -0.5 l7.5 -2.3 7.3 6.9 c5.1 4.9 7.9 6.8 9.4 6.5 2.1 -0.3 2.3 -1 2.9 -11.1z"/>
  <path d="M592 420.6 c-1.9 -3.8 -2 -24.9 -0.1 -35.9 1.7 -9.8 3.9 -13.8 8.4 -16.1 3.3 -1.5 3.9 -1.5 6.3 -0.1 7.1 3.9 10.5 16.6 8.5 31.1 -2 14.8 -8.8 24 -17.6 24 -3.3 0 -4.2 -0.5 -5.5 -3.1z"/>
  <path d="M317.6 445.2 c-3.4 -1.4 -7.4 -7 -9.2 -12.7 -0.9 -3.1 -1.8 -10.6 -2.1 -18.1 -1 -24.7 4.5 -39.4 15 -39.4 9.8 0 14.8 12.4 14.8 36.3 -0.1 16.2 -2.5 26.2 -7.4 31 -3.3 3 -7.9 4.2 -11.2 2.9z"/>
  <path d="M495.8 432.3 c-2.5 -2.5 -2.8 -3.3 -2.4 -8.2 0.3 -3.9 1.2 -6.5 3.2 -9.1 3 -3.8 11.2 -8.3 17.4 -9.4 l3.8 -0.6 0 7 c-0.1 10 -1.3 14.5 -5.4 18.6 -2.9 2.9 -4.6 3.7 -8.7 4.1 -4.6 0.4 -5.5 0.1 -7.9 -2.4z"/>
 </g>
 <g fill="#737473">
  <path d="M592.8 498.8 c0 -2.8 0.2 -3.9 0.4 -2.3 0.2 1.5 0.2 3.8 0 5.1 -0.2 1.2 -0.4 0 -0.4 -2.9z"/>
  <path d="M562 494.2 c0 -1.9 0.2 -2.8 0.5 -1.7 0.2 0.9 0.2 2.6 0 3.6 -0.3 0.9 -0.5 0.1 -0.5 -1.8z"/>
  <path d="M189.1 495.6 c1.2 -0.2 3.1 -0.2 4.1 0 0.9 0.3 -0.1 0.5 -2.4 0.4 -2.3 0 -3.1 -0.2 -1.7 -0.4z"/>
  <path d="M561.1 474.8 c0 -3.1 0.2 -4.4 0.4 -2.8 0.2 1.5 0.2 4 0 5.6 -0.2 1.5 -0.4 0.2 -0.4 -2.9z"/>
  <path d="M235.6 475.8 c0 -1.9 0.2 -2.8 0.5 -1.7 0.2 0.9 0.2 2.6 0 3.6 -0.3 0.9 -0.5 0.1 -0.5 -1.8z"/>
  <path d="M174.2 469.7 c0 -1.9 0.2 -2.8 0.5 -1.7 0.2 0.9 0.2 2.6 0 3.6 -0.3 0.9 -0.5 0.1 -0.5 -1.8z"/>
  <path d="M590.7 468.1 c0 -2.8 0.2 -3.9 0.4 -2.3 0.2 1.5 0.2 3.8 0 5.1 -0.2 1.2 -0.4 0 -0.4 -2.9z"/>
  <path d="M441 467.3 c0 -0.2 1.5 -1.6 3.4 -3.4 l3.3 -3 -3 3.4 c-2.9 3.1 -3.7 3.8 -3.7 3z"/>
  <path d="M532.9 466.9 c1.2 -0.2 3.1 -0.2 4.1 0 0.9 0.3 -0.1 0.5 -2.4 0.4 -2.3 0 -3.1 -0.2 -1.7 -0.4z"/>
  <path d="M1207.7 464 c0 -2.3 0.2 -3.1 0.4 -1.7 0.2 1.2 0.2 3.1 0 4.1 -0.3 0.9 -0.5 -0.1 -0.4 -2.4z"/>
  <path d="M388.2 463.3 l-3 -3.4 3.4 3 c1.7 1.7 3.3 3.2 3.3 3.4 0 0.8 -0.8 0.1 -3.7 -3z"/>
  <path d="M875.2 463.8 c1.5 -0.2 4 -0.2 5.6 0 1.5 0.2 0.2 0.4 -2.9 0.4 -3.1 0 -4.4 -0.2 -2.8 -0.4z"/>
  <path d="M1177.1 460 c0 -2.3 0.2 -3.1 0.4 -1.7 0.2 1.2 0.2 3.1 0 4.1 -0.3 0.9 -0.5 -0.1 -0.4 -2.4z"/>
  <path d="M267.5 439.5 c0 -12.9 0.2 -18.1 0.3 -11.5 0.2 6.7 0.2 17.2 0 23.5 -0.1 6.3 -0.3 0.9 -0.3 -12.1z"/>
  <path d="M947.3 461.8 c1.2 -0.2 3.1 -0.2 4.1 0 0.9 0.3 -0.1 0.5 -2.4 0.4 -2.3 0 -3.1 -0.2 -1.7 -0.4z"/>
  <path d="M548.7 455.3 c0 -1.9 0.2 -2.8 0.5 -1.7 0.2 0.9 0.2 2.6 0 3.6 -0.3 0.9 -0.5 0.1 -0.5 -1.8z"/>
  <path d="M1151.6 448.7 c0 -5 0.1 -7.3 0.3 -4.9 0.2 2.4 0.2 6.5 0 9.2 -0.2 2.7 -0.3 0.8 -0.3 -4.3z"/>
  <path d="M205 452.8 c0 -2.3 0.2 -3.1 0.4 -1.7 0.2 1.2 0.2 3.1 0 4.1 -0.3 0.9 -0.5 -0.1 -0.4 -2.4z"/>
  <path d="M1015.5 446.7 c0 -5 0.1 -7.3 0.3 -4.9 0.2 2.4 0.2 6.5 0 9.2 -0.2 2.7 -0.3 0.8 -0.3 -4.3z"/>
  <path d="M1120.8 449.7 c0 -3.4 0.2 -4.6 0.4 -2.8 0.2 1.8 0.2 4.6 0 6.1 -0.2 1.5 -0.4 0 -0.4 -3.4z"/>
  <path d="M769.8 445.6 c0 -2.8 0.2 -3.9 0.4 -2.3 0.2 1.5 0.2 3.8 0 5.1 -0.2 1.2 -0.4 0 -0.4 -2.9z"/>
  <path d="M932.4 447.2 c0 -1.9 0.2 -2.8 0.5 -1.7 0.2 0.9 0.2 2.6 0 3.6 -0.3 0.9 -0.5 0.1 -0.5 -1.8z"/>
  <path d="M1208.8 446.7 c0 -2.3 0.2 -3.1 0.4 -1.7 0.2 1.2 0.2 3.1 0 4.1 -0.3 0.9 -0.5 -0.1 -0.4 -2.4z"/>
  <path d="M985.7 439.5 c0 -2.3 0.2 -3.1 0.4 -1.7 0.2 1.2 0.2 3.1 0 4.1 -0.3 0.9 -0.5 -0.1 -0.4 -2.4z"/>
  <path d="M234.7 431.3 c0 -6.1 0.1 -8.6 0.3 -5.3 0.2 3.3 0.2 8.3 0 11.3 -0.2 3 -0.3 0.3 -0.3 -5.9z"/>
  <path d="M546.6 438 c0 -1.9 0.2 -2.8 0.5 -1.7 0.2 0.9 0.2 2.6 0 3.6 -0.3 0.9 -0.5 0.1 -0.5 -1.8z"/>
  <path d="M798.4 437.4 c0 -2.3 0.2 -3.1 0.4 -1.7 0.2 1.2 0.2 3.1 0 4.1 -0.3 0.9 -0.5 -0.1 -0.4 -2.4z"/>
  <path d="M758.5 430.3 c0 -2.8 0.2 -3.9 0.4 -2.3 0.2 1.5 0.2 3.8 0 5.1 -0.2 1.2 -0.4 0 -0.4 -2.9z"/>
  <path d="M1179.1 429.3 c0 -3.4 0.2 -4.6 0.4 -2.8 0.2 1.8 0.2 4.6 0 6.1 -0.2 1.5 -0.4 0 -0.4 -3.4z"/>
  <path d="M171.1 430.8 c0 -1.9 0.2 -2.8 0.5 -1.7 0.2 0.9 0.2 2.6 0 3.6 -0.3 0.9 -0.5 0.1 -0.5 -1.8z"/>
  <path d="M204.9 428.7 c0 -1.9 0.2 -2.8 0.5 -1.7 0.2 0.9 0.2 2.6 0 3.6 -0.3 0.9 -0.5 0.1 -0.5 -1.8z"/>
  <path d="M1209.9 418 c0 -6.8 0.1 -9.4 0.3 -5.8 0.2 3.5 0.2 9 0 12.3 -0.2 3.2 -0.3 0.3 -0.3 -6.4z"/>
  <path d="M492.4 425.7 c0 -1.9 0.2 -2.8 0.5 -1.7 0.2 0.9 0.2 2.6 0 3.6 -0.3 0.9 -0.5 0.1 -0.5 -1.8z"/>
  <path d="M768.8 423.6 c0 -2.6 0.2 -3.6 0.4 -2.3 0.2 1.2 0.2 3.3 0 4.6 -0.2 1.2 -0.4 0.2 -0.4 -2.4z"/>
  <path d="M962.2 421.6 c0 -3.1 0.2 -4.4 0.4 -2.8 0.2 1.5 0.2 4 0 5.6 -0.2 1.5 -0.4 0.2 -0.4 -2.9z"/>
  <path d="M986.7 423.1 c0 -2.3 0.2 -3.1 0.4 -1.7 0.2 1.2 0.2 3.1 0 4.1 -0.3 0.9 -0.5 -0.1 -0.4 -2.4z"/>
  <path d="M1016.4 421.1 c0 -2.8 0.2 -3.9 0.4 -2.3 0.2 1.5 0.2 3.8 0 5.1 -0.2 1.2 -0.4 0 -0.4 -2.9z"/>
  <path d="M546.7 418.5 c0 -2.6 0.2 -3.6 0.4 -2.3 0.2 1.2 0.2 3.3 0 4.6 -0.2 1.2 -0.4 0.2 -0.4 -2.4z"/>
  <path d="M797.5 413.9 c0 -5 0.1 -7.3 0.3 -4.9 0.2 2.4 0.2 6.5 0 9.2 -0.2 2.7 -0.3 0.8 -0.3 -4.3z"/>
  <path d="M170.1 417.5 c0 -1.9 0.2 -2.8 0.5 -1.7 0.2 0.9 0.2 2.6 0 3.6 -0.3 0.9 -0.5 0.1 -0.5 -1.8z"/>
  <path d="M1121.9 402.7 c0 -10.1 0.2 -14.1 0.3 -8.9 0.2 5.2 0.2 13.5 0 18.4 -0.1 4.9 -0.3 0.6 -0.3 -9.5z"/>
  <path d="M305.2 410.8 c0 -3.9 0.2 -5.4 0.4 -3.3 0.2 2 0.2 5.3 0 7.2 -0.2 1.7 -0.4 0.1 -0.4 -3.9z"/>
  <path d="M401.4 412.4 c0 -2.6 0.2 -3.6 0.4 -2.3 0.2 1.2 0.2 3.3 0 4.6 -0.2 1.2 -0.4 0.2 -0.4 -2.4z"/>
  <path d="M518.1 409.8 c0 -2.8 0.2 -3.9 0.4 -2.3 0.2 1.5 0.2 3.8 0 5.1 -0.2 1.2 -0.4 0 -0.4 -2.9z"/>
  <path d="M589.7 406.2 c0 -4.8 0.2 -6.8 0.4 -4.3 0.2 2.4 0.2 6.2 0 8.7 -0.2 2.4 -0.4 0.4 -0.4 -4.4z"/>
  <path d="M836.3 409.3 c0 -3.1 0.2 -4.4 0.4 -2.8 0.2 1.5 0.2 4 0 5.6 -0.2 1.5 -0.4 0.2 -0.4 -2.9z"/>
  <path d="M1057.3 406.2 c0 -4.8 0.2 -6.8 0.4 -4.3 0.2 2.4 0.2 6.2 0 8.7 -0.2 2.4 -0.4 0.4 -0.4 -4.4z"/>
  <path d="M741.7 410.6 c1.2 -0.2 3.1 -0.2 4.1 0 0.9 0.3 -0.1 0.5 -2.4 0.4 -2.3 0 -3.1 -0.2 -1.7 -0.4z"/>
  <path d="M767.7 405.7 c0 -2.8 0.2 -3.9 0.4 -2.3 0.2 1.5 0.2 3.8 0 5.1 -0.2 1.2 -0.4 0 -0.4 -2.9z"/>
  <path d="M1179.1 406.7 c0 -2.3 0.2 -3.1 0.4 -1.7 0.2 1.2 0.2 3.1 0 4.1 -0.3 0.9 -0.5 -0.1 -0.4 -2.4z"/>
  <path d="M233.5 405.2 c0 -1.9 0.2 -2.8 0.5 -1.7 0.2 0.9 0.2 2.6 0 3.6 -0.3 0.9 -0.5 0.1 -0.5 -1.8z"/>
  <path d="M891.5 404.2 c0 -1.9 0.2 -2.8 0.5 -1.7 0.2 0.9 0.2 2.6 0 3.6 -0.3 0.9 -0.5 0.1 -0.5 -1.8z"/>
  <path d="M987.7 402.7 c0 -2.8 0.2 -3.9 0.4 -2.3 0.2 1.5 0.2 3.8 0 5.1 -0.2 1.2 -0.4 0 -0.4 -2.9z"/>
  <path d="M266.4 401.6 c0 -2.3 0.2 -3.1 0.4 -1.7 0.2 1.2 0.2 3.1 0 4.1 -0.3 0.9 -0.5 -0.1 -0.4 -2.4z"/>
  <path d="M1017.5 396.5 c0 -5 0.1 -7.3 0.3 -4.9 0.2 2.4 0.2 6.5 0 9.2 -0.2 2.7 -0.3 0.8 -0.3 -4.3z"/>
  <path d="M547.6 397 c0 -1.9 0.2 -2.8 0.5 -1.7 0.2 0.9 0.2 2.6 0 3.6 -0.3 0.9 -0.5 0.1 -0.5 -1.8z"/>
  <path d="M921.2 393.4 c0 -2.8 0.2 -3.9 0.4 -2.3 0.2 1.5 0.2 3.8 0 5.1 -0.2 1.2 -0.4 0 -0.4 -2.9z"/>
  <path d="M561.1 389.3 c0 -3.9 0.2 -5.4 0.4 -3.3 0.2 2 0.2 5.3 0 7.2 -0.2 1.7 -0.4 0.1 -0.4 -3.9z"/>
  <path d="M836.3 390.4 c0 -2.8 0.2 -3.9 0.4 -2.3 0.2 1.5 0.2 3.8 0 5.1 -0.2 1.2 -0.4 0 -0.4 -2.9z"/>
  <path d="M766.7 389.3 c0 -2.3 0.2 -3.1 0.4 -1.7 0.2 1.2 0.2 3.1 0 4.1 -0.3 0.9 -0.5 -0.1 -0.4 -2.4z"/>
  <path d="M866 389.3 c0 -2.3 0.2 -3.1 0.4 -1.7 0.2 1.2 0.2 3.1 0 4.1 -0.3 0.9 -0.5 -0.1 -0.4 -2.4z"/>
  <path d="M512.1 385.1 c2.8 -0.2 5.4 -1 5.9 -1.6 0.6 -0.8 0.7 -0.7 0.4 0.3 -0.2 1.1 -1.9 1.5 -5.9 1.6 l-5.5 0.1 5.1 -0.4z"/>
  <path d="M891.6 381.7 c0 -2.6 0.2 -3.6 0.4 -2.3 0.2 1.2 0.2 3.3 0 4.6 -0.2 1.2 -0.4 0.2 -0.4 -2.4z"/>
  <path d="M453.6 374 c0 -2.8 0.2 -3.9 0.4 -2.3 0.2 1.5 0.2 3.8 0 5.1 -0.2 1.2 -0.4 0 -0.4 -2.9z"/>
  <path d="M765.7 370.4 c0 -2.6 0.2 -3.6 0.4 -2.3 0.2 1.2 0.2 3.3 0 4.6 -0.2 1.2 -0.4 0.2 -0.4 -2.4z"/>
  <path d="M931.5 365.8 c0 -2.8 0.2 -3.9 0.4 -2.3 0.2 1.5 0.2 3.8 0 5.1 -0.2 1.2 -0.4 0 -0.4 -2.9z"/>
  <path d="M562.1 360.2 c0 -3.7 0.2 -5.1 0.4 -3.3 0.2 1.7 0.2 4.8 0 6.7 -0.2 1.7 -0.4 0.3 -0.4 -3.4z"/>
  <path d="M348.8 359.5 l-3.5 -3.9 3.9 3.5 c2 1.9 3.8 3.7 3.8 3.9 0 0.8 -0.8 0 -4.2 -3.5z"/>
  <path d="M959 359.5 c0.1 -3.9 0.1 -3.9 0.5 -0.5 0.3 2 0.8 3.1 1.5 2.7 0.7 -0.4 0.8 -0.2 0.4 0.4 -1.4 2.5 -2.7 1.1 -2.5 -2.6z"/>
  <path d="M792.4 360.8 c-0.3 -0.8 -0.4 -2.4 -0.1 -3.4 0.3 -1.2 0.5 -0.8 0.6 1 0.1 1.9 0.5 2.7 1.3 2.1 0.7 -0.4 0.8 -0.3 0.4 0.4 -1 1.6 -1.5 1.5 -2.3 -0.2z"/>
  <path d="M210.3 356.1 c2.1 -2.3 4.2 -4.1 4.5 -4.1 0.3 0 -1.3 1.8 -3.5 4.1 -2.1 2.3 -4.2 4.1 -4.5 4.1 -0.3 0 1.3 -1.8 3.5 -4.1z"/>
  <path d="M1122.9 351.5 c0 -5 0.1 -7.3 0.3 -4.9 0.2 2.4 0.2 6.5 0 9.2 -0.2 2.7 -0.3 0.8 -0.3 -4.3z"/>
  <path d="M1153.6 351.5 c0 -5 0.1 -7.3 0.3 -4.9 0.2 2.4 0.2 6.5 0 9.2 -0.2 2.7 -0.3 0.8 -0.3 -4.3z"/>
  <path d="M1175.5 358.4 c1.2 -0.2 3.1 -0.2 4.1 0 0.9 0.3 -0.1 0.5 -2.4 0.4 -2.3 0 -3.1 -0.2 -1.7 -0.4z"/>
  <path d="M388.8 355.8 c0 -0.2 1.5 -1.6 3.4 -3.4 l3.3 -3 -3 3.4 c-2.9 3.1 -3.7 3.8 -3.7 3z"/>
  <path d="M1005.2 351.8 l-3 -3.4 3.4 3 c1.7 1.7 3.3 3.2 3.3 3.4 0 0.8 -0.8 0.1 -3.7 -3z"/>
  <path d="M533.5 349.7 l-3 -3.4 3.4 3 c3.1 2.9 3.8 3.7 3 3.7 -0.2 0 -1.6 -1.5 -3.4 -3.3z"/>
  <path d="M853.7 350.3 c0.9 -0.2 2.6 -0.2 3.6 0 0.9 0.3 0.1 0.5 -1.8 0.5 -1.9 0 -2.8 -0.2 -1.7 -0.5z"/>
  <path d="M1211.5 344.1 l-5.6 -5.9 5.9 5.6 c5.4 5.1 6.3 6.1 5.5 6.1 -0.1 0 -2.8 -2.7 -5.8 -5.8z"/>
  <path d="M945.8 344.1 c0.9 -0.2 2.6 -0.2 3.6 0 0.9 0.3 0.1 0.5 -1.8 0.5 -1.9 0 -2.8 -0.2 -1.7 -0.5z"/>
  <path d="M606.1 341.1 c1.5 -0.2 3.8 -0.2 5.1 0 1.2 0.2 0 0.4 -2.9 0.4 -2.8 0 -3.9 -0.2 -2.3 -0.4z"/>
  <path d="M1123.9 311.1 c0 -6.4 0.1 -9.1 0.3 -5.8 0.2 3.2 0.2 8.5 0 11.8 -0.2 3.2 -0.3 0.5 -0.3 -5.9z"/>
  <path d="M1154.6 308.5 c0 -7.3 0.1 -10.1 0.3 -6.3 0.2 3.8 0.2 9.8 0 13.3 -0.2 3.5 -0.3 0.4 -0.3 -7z"/>
 </g>
 <g fill="#0c0c0c">
  <path d="M573.6 511.6 c-3.9 -1.2 -7.7 -4.8 -9.4 -8.9 -3.2 -7.5 -4.4 -69.7 -2.5 -123.6 0.5 -15.1 1.2 -29.6 1.6 -31.9 1.1 -8.8 9.6 -14 18.6 -11.7 4.8 1.3 7.4 4.3 7.4 8.5 0 3.5 0.3 3.5 6.5 0.3 4 -2 6.5 -2.6 12.4 -2.6 20.7 0 34.2 17.5 35.9 46.6 1.5 24.1 -9.1 46.9 -26.1 56.1 -5.8 3.2 -16.1 5.8 -22.8 5.8 l-4.9 0 0 7 c0 3.8 0.5 15.5 1.2 26 1.3 20.8 1 23.4 -3.3 26.5 -3.1 2.3 -10.5 3.3 -14.7 1.9z m28.4 -88.4 c4.7 -1.9 8.5 -6.3 11.1 -12.9 3.1 -7.7 3.3 -26.7 0.5 -34 -5.4 -14 -17.9 -11.3 -21.5 4.8 -2 9.2 -3.2 25.6 -2.4 32.6 0.8 6.2 3.8 10.8 6.9 10.8 1.1 0 3.6 -0.6 5.4 -1.4z"/>
  <path d="M250.8 504.4 c-7.5 -2.3 -10.4 -5.6 -13 -14.9 -1.2 -4.5 -1.7 -15.1 -2.5 -44.8 -1.2 -49.1 -2.6 -60 -8.2 -62.9 -5.6 -3 -12.7 4.4 -16.8 17.4 -5.7 17.9 -7 40 -4.1 69 1.5 15.2 1.4 16.3 -0.3 19.9 -2.4 4.9 -7.3 7.4 -14.6 7.4 -6.8 0 -9.9 -1.4 -12.9 -5.8 -2.6 -3.8 -2.6 -4.1 -6 -48.4 -1.3 -17.7 -3.5 -42.7 -4.8 -55.5 -2.1 -21.9 -2.1 -23.4 -0.5 -26.8 4 -8.4 19.7 -10.9 25.2 -4.1 1.2 1.5 2.3 4.9 2.7 8.4 0.9 9.3 1.5 12.5 2.4 12.5 0.4 0 2 -2.7 3.8 -5.8 4.3 -8.3 13.8 -18 20.8 -21.5 8.2 -4 18.1 -4.1 24.9 -0.1 5.9 3.5 9.9 8.7 12.9 17 5.5 15 6.4 23.6 7.4 67.7 0.5 21.1 1.5 43.7 2.3 50.1 1 10 1 12.3 -0.2 14.7 -2.9 5.9 -10.8 8.8 -18.2 6.7z"/>
  <path d="M1186.3 482.1 c-8.7 -4.1 -9.8 -8.7 -7.9 -33.2 2.4 -31.7 1.5 -52.9 -2.3 -58.8 -0.8 -1.3 -2.7 -2.9 -4.1 -3.5 -7.3 -3.3 -15.9 13.4 -18.8 36.5 -0.6 4.5 -1.4 15.2 -1.8 23.8 l-0.8 15.7 -3.3 3.3 c-3.1 3 -3.9 3.3 -9.8 3.3 -7.6 0 -11.2 -1.9 -14.2 -7.8 -1.7 -3.3 -1.8 -6 -1.2 -41.3 1.3 -85.9 2.6 -123.6 4.2 -128.1 1.9 -5.4 6 -8.4 12.4 -9.1 6.2 -0.7 11.4 1.8 13.9 6.8 1.8 3.4 1.8 6 1.3 42.4 l-0.6 38.7 4.7 -4.1 c6.1 -5.5 12.9 -7.7 21.8 -7.2 16.9 0.9 25.4 11.4 28.7 35.1 2.1 15.3 0.5 72.8 -2.4 81.2 -2.4 7.2 -11.6 10.1 -19.7 6.3z"/>
  <path d="M700 479.8 c-19.1 -3.8 -35.8 -22.5 -42.1 -47.2 -6.3 -25.5 -4.7 -61.2 3.9 -85.5 7.8 -22 22.8 -39 38.9 -43.9 7.8 -2.5 22.4 -2.4 29.6 0 15.2 5.2 25 20.9 25.1 40.3 0.1 7 -0.3 9.3 -2.4 13.2 -4 7.8 -12.2 10.6 -19.7 7.1 -4.6 -2.3 -6.4 -6 -7.7 -15.7 -0.6 -4.6 -1.5 -9.3 -2.1 -10.4 -2.9 -5.3 -10.9 -6.8 -16.9 -3.1 -7 4.3 -14 20.4 -17.4 39.3 -2.3 12.9 -2 35.4 0.4 47.4 3.3 15.8 10.5 26.4 18.5 26.9 5.7 0.5 8.2 -0.1 11.3 -2.7 4.1 -3.5 6.4 -8.2 9.6 -19.4 2 -7.2 3.3 -9.7 5.8 -12.1 3 -2.7 3.8 -2.9 9.2 -2.5 9.9 0.7 14.2 6.4 14.2 19.1 0 12 -6 26.6 -14.6 35.8 -10.7 11.4 -27.5 16.5 -43.6 13.3z"/>
  <path d="M409.5 474.8 c-14.6 -3.1 -26.7 -14.8 -32.3 -31.7 -9.5 -28.4 -3.1 -70 13.7 -88.3 19.2 -21 53.6 -16.7 60.9 7.7 2.3 7.6 2 17.9 -0.5 22 -3.9 6.3 -11.5 9 -17.2 6 -4.5 -2.4 -6 -5.2 -6.9 -12.6 -0.8 -7.3 -3.2 -10.5 -7.7 -10.5 -14.1 0 -22.8 40.2 -14.7 67.6 2.3 7.6 7.9 13.2 13.2 13.2 5.5 0 9.5 -4.6 13.2 -15.2 1.8 -5.2 3.8 -9 5.1 -9.9 9.1 -5.9 20.1 0.7 20.1 12.1 0 5.7 -3 15.6 -6.5 21.6 -3.7 6.3 -12 13.5 -18.4 16 -6.7 2.5 -16 3.4 -21.9 2.1z"/>
  <path d="M308.3 470.9 c-18.4 -6.5 -29.6 -25.1 -31.5 -52.5 -1.9 -25.9 6.4 -51 20.5 -61.5 7.5 -5.7 13.6 -7.5 25.1 -7.5 8.5 0.1 10.5 0.4 16.1 3 12 5.5 20.5 17.6 24.6 34.9 2.7 11.9 2.5 36.7 -0.6 47.9 -4.3 16.2 -13.3 28.2 -25.2 34 -8.1 3.9 -20.8 4.6 -28.9 1.7z m20.6 -28.1 c4.8 -5.1 7.1 -13.4 7.6 -28 1 -29.3 -7.4 -45.3 -20.3 -38.7 -5.6 3 -9.2 12.5 -10.8 28.8 -0.8 8.8 0.9 23.1 3.8 30.7 4.1 10.7 13.2 14.1 19.7 7.3z"/>
  <path d="M995 468.2 c-1.7 -0.8 -4.1 -2.7 -5.3 -4.2 -4.1 -5.2 -4.6 -9.6 -3.3 -29.1 2.8 -40 1.2 -57.6 -5.4 -59.9 -3.8 -1.3 -7.6 1.5 -11.2 8.6 -5.5 11.2 -8 26.9 -8 52.5 0 17.3 -0.7 20.5 -5.3 23.6 -3.4 2.4 -12.8 2.1 -16.9 -0.4 -7.1 -4.2 -7 -3.5 -7.3 -56 -0.4 -52.6 -0.4 -52.4 6.4 -56.6 4.8 -3 12.8 -2.8 16.5 0.4 2.5 2 2.9 3.3 3.3 9.2 0.2 3.8 0.8 6.8 1.2 6.5 0.4 -0.2 2.8 -2.9 5.3 -5.9 14.1 -17.4 38.5 -15.1 46.8 4.3 3.5 8.1 5.2 20.4 5.1 35.5 -0.1 23.4 -2.5 64.9 -3.8 67.3 -2.8 5 -11.6 6.9 -18.2 4z"/>
  <path d="M527.4 465.7 c-2.9 -1.2 -7.6 -7 -7.6 -9.3 0 -3.1 -1.3 -3.1 -6 0.1 -5.9 4 -11.4 5.4 -20.1 5.4 -8.8 0 -14.9 -2.6 -21 -8.6 -6.9 -6.9 -8.7 -12 -8.7 -24 0 -9.3 0.3 -10.8 3.2 -16.9 7.3 -15.3 22.8 -25.1 42.4 -26.5 l8.7 -0.6 -0.3 -4.6 c-0.5 -6.8 -2 -10.9 -5 -13.3 -4.4 -3.5 -12.8 -2.1 -16.8 2.7 -3.7 4.4 -9.4 7.6 -14 7.6 -3.8 0 -5.1 -0.6 -8 -3.5 -2.7 -2.7 -3.5 -4.3 -3.5 -7.2 0 -8.1 6.8 -16 17.9 -21.2 15.5 -7.2 33.6 -5.8 43.9 3.4 5.9 5.1 9.5 11.2 12.2 20.6 2 6.8 2.1 10 2.3 39.6 0 17.7 0.4 36.4 0.9 41.4 l0.8 9.2 -3.2 3.1 c-2.8 2.6 -4.1 3 -9.6 3.3 -3.5 0.2 -7.3 -0.1 -8.5 -0.6z m-15.8 -33.8 c4.3 -3.5 5.7 -7.4 6.7 -18.3 l0.8 -8.4 -3.1 0 c-14.2 0 -27.9 15.6 -22.4 25.5 3.3 5.9 11.5 6.4 18 1.2z"/>
  <path d="M779.2 464 c-2.3 -0.8 -4.2 -1.5 -4.4 -1.5 -0.2 0 -1.2 -1.9 -2.3 -4.3 -1.5 -3.6 -2.1 -9 -3 -27.4 -0.7 -12.7 -1.6 -29.5 -2.1 -37.3 -1.6 -23.1 -1.6 -36.4 0.1 -39.9 3.6 -7.4 15.1 -10.3 21 -5.3 2.1 1.8 2.9 3.6 3.3 7.7 0.2 3 0.8 5.6 1.2 5.8 0.5 0.3 2.3 -1.9 3.9 -5 6.2 -10.9 16.4 -16.5 25.8 -13.9 5 1.3 9.8 5.6 10.8 9.6 1.2 5 -0.5 11.8 -4.1 15.7 -2.9 3.2 -4 3.7 -10.1 4.3 -8 0.8 -11.2 2.9 -15.2 9.4 -6 9.7 -7.1 20.5 -5.9 57.7 0.4 14.5 0.3 16.8 -1.3 19.2 -3.7 5.6 -10.7 7.8 -17.6 5.3z"/>
  <path d="M1062.4 464 c-8.1 -2.3 -13.3 -5.2 -18.6 -10.5 -16.1 -16.3 -20.8 -48.8 -11.3 -78.6 3.3 -10.3 10.2 -21.3 17 -26.6 17.1 -13.7 39.4 -13.7 52.5 -0.2 7.9 8.2 11.2 24.6 6.5 32.4 -3.9 6.7 -12.3 9.1 -18.8 5.7 -3.8 -1.9 -4.8 -3.8 -6 -11.8 -1.2 -7.6 -3.3 -10.2 -7.9 -10.2 -16.7 0 -25.6 50.3 -12 68.4 3.4 4.4 7.9 6.7 12.1 5.9 4.1 -0.8 6.7 -3.5 10.5 -11.4 1.6 -3.4 4 -7 5.2 -8.1 3.2 -2.9 10.1 -3.2 14.2 -0.6 13.2 8.3 3.6 34.8 -15.9 43.7 -7.1 3.3 -19.6 4.1 -27.6 1.8z"/>
  <path d="M864.1 461.3 c-11.4 -4 -20.5 -15.7 -24.6 -31.5 -5 -19.3 -3.3 -59.3 3.1 -71.7 3.7 -7 14.2 -9.3 21.1 -4.7 5.2 3.5 5.6 5.8 3.7 22.4 -3.8 31.7 -1 54.3 7.2 58 4 1.8 6.4 1.3 10 -2.3 2.6 -2.6 3.7 -5 5.1 -10.9 2.5 -10.9 3.1 -29.4 1.5 -48.1 -1.4 -17.8 -1 -20 4.2 -23.8 3.6 -2.6 12 -2.8 15.7 -0.4 6.7 4.4 8.6 12.5 9.4 38.1 1.3 42 -8.5 67.5 -28.9 75.2 -7.5 2.8 -19.1 2.7 -27.5 -0.2z"/>
  <path d="M1213.7 345.3 c-3.8 -3.7 -7.6 -6.7 -8.4 -6.7 -0.8 0 -5.5 1 -10.4 2.3 -12.4 3.2 -12.7 2.5 -5.4 -13.7 l2.6 -5.8 -5 -7.7 c-2.9 -4.2 -5.1 -8.6 -5.1 -9.8 0 -2.1 0.3 -2.1 10.9 -1.8 l10.9 0.3 5.1 -6.9 c5.4 -7.2 8.4 -9.2 9.9 -6.9 0.5 0.8 1.3 4 1.9 7.1 2.7 13.1 2.5 12.7 8.9 14.7 7 2.1 13.6 5.4 13.6 6.5 0 1.5 -4.5 5 -11.5 8.8 l-7 3.9 0 9.2 c0 8.9 -1 13.1 -3.2 13.1 -0.6 0 -4.2 -3 -8 -6.7z"/>
 </g>
</svg>